<svg xmlns="http://www.w3.org/2000/svg" viewBox="0 0 149 35.09"><title>a</title><path d="M141.64,0H7.36A7.36,7.36,0,0,0,0,7.36V27.73a7.36,7.36,0,0,0,7.36,7.36H141.64A7.36,7.36,0,0,0,149,27.73V7.36A7.36,7.36,0,0,0,141.64,0ZM32.24,27.13a5.16,5.16,0,0,1-5.16,5.11H8a5.16,5.16,0,0,1-5.16-5.11V8A5.21,5.21,0,0,1,8,2.79H27.08A5.21,5.21,0,0,1,32.24,8V27.13Zm114,0A5.16,5.16,0,0,1,141,32.24H40.73a5.15,5.15,0,0,1-5.11-5.11V8a5.2,5.2,0,0,1,5.11-5.16H141A5.21,5.21,0,0,1,146.21,8V27.13Z" style="fill:#6b4596;fill-rule:evenodd"/><path d="M49.37,17.6a5.25,5.25,0,0,0,.68,3.06,2.49,2.49,0,0,0,2.21,1,2.34,2.34,0,0,0,2.16-1,5.21,5.21,0,0,0,.74-3.06,5.28,5.28,0,0,0-.74-3.11,2.34,2.34,0,0,0-2.16-1,2.49,2.49,0,0,0-2.21,1,5.33,5.33,0,0,0-.68,3.11h0Zm-4.85,0a7.64,7.64,0,0,1,2.11-5.74,7.47,7.47,0,0,1,5.64-2.11,7.47,7.47,0,0,1,5.64,2.11A7.82,7.82,0,0,1,60,17.6a7.77,7.77,0,0,1-2.05,5.69,7.47,7.47,0,0,1-5.64,2.11,7.47,7.47,0,0,1-5.64-2.11,7.59,7.59,0,0,1-2.11-5.69h0Zm16.75,4.11a1.87,1.87,0,0,1,.58-1.48,1.76,1.76,0,0,1,1.42-.58,2.81,2.81,0,0,1,1.9,1,1.38,1.38,0,0,1,.26.32,3.56,3.56,0,0,0,1.05.68,2.44,2.44,0,0,0,1.11.21,2.25,2.25,0,0,0,1.26-.32,0.87,0.87,0,0,0,.47-0.79c0-.53-0.63-1-2-1.37-0.32-.11-0.58-0.16-0.79-0.21a22.72,22.72,0,0,1-2.37-.84,6.48,6.48,0,0,1-1.26-.68,3.81,3.81,0,0,1-1.21-1.42,4.71,4.71,0,0,1-.37-1.79A4,4,0,0,1,63,11,7.47,7.47,0,0,1,67.6,9.69a8.2,8.2,0,0,1,4.32,1,2.85,2.85,0,0,1,1.69,2.42,1.78,1.78,0,0,1-.53,1.32,2,2,0,0,1-1.42.47,3,3,0,0,1-1.9-.84,2.38,2.38,0,0,1-.37-0.37,5,5,0,0,0-.9-0.47A2.07,2.07,0,0,0,67.55,13a2.21,2.21,0,0,0-1.16.26,0.89,0.89,0,0,0-.37.79c0,0.47.68,0.95,2.05,1.37h0.05a2.45,2.45,0,0,0,.47.16,12.93,12.93,0,0,1,3.69,1.48,4.12,4.12,0,0,1,1.32,1.42A4.12,4.12,0,0,1,74,20.34a4.48,4.48,0,0,1-1.69,3.79,8.28,8.28,0,0,1-5,1.26,8.35,8.35,0,0,1-4.43-1,3,3,0,0,1-1.63-2.69h0ZM76.61,14A2.13,2.13,0,0,1,75,13.49a2,2,0,0,1-.53-1.42,1.78,1.78,0,0,1,.58-1.42,1.92,1.92,0,0,1,1.53-.53h10a2.37,2.37,0,0,1,1.58.53,2.22,2.22,0,0,1,.53,1.53,1.91,1.91,0,0,1-.53,1.37,2.36,2.36,0,0,1-1.58.47H84v9a2.15,2.15,0,0,1-.58,1.58,2.61,2.61,0,0,1-1.79.58,2.35,2.35,0,0,1-1.74-.63,2,2,0,0,1-.63-1.63V14H76.61Zm15.07,9.85L92,23h4.74l0.32,0.84a1.71,1.71,0,0,0,.79,1,1.9,1.9,0,0,0,1.26.37,2.11,2.11,0,0,0,1.53-.58,1.8,1.8,0,0,0,.63-1.42c0-.21-0.05-0.37-0.05-0.53s-0.05-.32-0.11-0.42L97.42,12.12a3.66,3.66,0,0,0-.95-1.74A2.08,2.08,0,0,0,95,10H93.68a2.16,2.16,0,0,0-1.48.47,3.54,3.54,0,0,0-.95,1.69L87.62,22.29a0.78,0.78,0,0,0-.05.37,1.62,1.62,0,0,0-.05.53,2,2,0,0,0,.58,1.48,2.15,2.15,0,0,0,1.58.58,1.85,1.85,0,0,0,1.21-.37,1.71,1.71,0,0,0,.79-1h0Zm1.21-4,1.48-5.16,1.53,5.16h-3Zm10.7,2.85a2.11,2.11,0,0,1,.63-1.53,2.14,2.14,0,0,1,1.58-.63A2.16,2.16,0,0,1,108,22.76a2.14,2.14,0,0,1-.63,1.58,2.11,2.11,0,0,1-1.53.63,2.14,2.14,0,0,1-1.58-.63,2.23,2.23,0,0,1-.63-1.58h0Zm9.85-12.65h6.9a2.36,2.36,0,0,1,1.58.47,1.91,1.91,0,0,1,.53,1.37,1.43,1.43,0,0,1-.53,1.26,2.21,2.21,0,0,1-1.53.47h-5.06v1.95h4.06a2.24,2.24,0,0,1,1.47.42,1.55,1.55,0,0,1,.47,1.26,1.75,1.75,0,0,1-.47,1.32,2.12,2.12,0,0,1-1.37.42h-4.16v2.32h5.32a2.21,2.21,0,0,1,1.53.47,1.65,1.65,0,0,1,.53,1.37,1.6,1.6,0,0,1-.53,1.32,2.34,2.34,0,0,1-1.47.42h-7.27a3.66,3.66,0,0,1-2.27-.58,2.94,2.94,0,0,1-.63-2.16V12.91a2.86,2.86,0,0,1,.63-2.16,3.33,3.33,0,0,1,2.27-.63h0Zm14.38,0h6.9a2.36,2.36,0,0,1,1.58.47,1.91,1.91,0,0,1,.53,1.37,1.43,1.43,0,0,1-.53,1.26,2.22,2.22,0,0,1-1.53.47h-5.06v1.95h4.06a2.24,2.24,0,0,1,1.47.42,1.55,1.55,0,0,1,.47,1.26,1.75,1.75,0,0,1-.47,1.32,2.12,2.12,0,0,1-1.37.42h-4.16v2.32H135a2.21,2.21,0,0,1,1.53.47,1.65,1.65,0,0,1,.53,1.37,1.75,1.75,0,0,1-.47,1.32,2.51,2.51,0,0,1-1.53.42h-7.27a3.38,3.38,0,0,1-2.21-.58,2.93,2.93,0,0,1-.69-2.16V12.91a2.84,2.84,0,0,1,.69-2.16A3.08,3.08,0,0,1,127.82,10.12Z" style="fill:#6b4596"/><path d="M16.86,11.22L16.65,11a0.3,0.3,0,0,1,0-.47l0.63-.63a0.4,0.4,0,0,1,.47,0l3.06,3.06a0.39,0.39,0,0,1,0,.47L20.13,14a0.39,0.39,0,0,1-.47,0l-0.21-.21L17.65,15.6l7.06,6.85a0.89,0.89,0,0,1,0,1.21c-0.42.42-.79,0.84-1.21,1.26a1,1,0,0,1-1.26,0l-6.85-7.11-1.79,1.84,0.21,0.21a0.34,0.34,0,0,1,.05.47L13.17,21A0.34,0.34,0,0,1,12.7,21c-1.26-1.21-1.79-1.79-3.06-3a0.39,0.39,0,0,1,0-.47l0.69-.68a0.39,0.39,0,0,1,.47,0L11,17.07C12.91,15.17,15,13.07,16.86,11.22Z" style="fill:#6b4596;fill-rule:evenodd"/></svg>